<mxfile host="Electron" agent="Mozilla/5.0 (X11; Linux x86_64) AppleWebKit/537.36 (KHTML, like Gecko) draw.io/26.1.1 Chrome/132.0.6834.210 Electron/34.3.3 Safari/537.36" version="26.1.1">
  <diagram name="Page-1" id="pTOQy4dPObKUg0zkNnz-">
    <mxGraphModel dx="1070" dy="795" grid="1" gridSize="10" guides="1" tooltips="1" connect="1" arrows="1" fold="1" page="1" pageScale="1" pageWidth="827" pageHeight="1169" math="0" shadow="0">
      <root>
        <mxCell id="0" />
        <mxCell id="1" parent="0" />
        <mxCell id="OK_GVBnBG3V8d3GRJhXl-1" style="edgeStyle=orthogonalEdgeStyle;rounded=0;orthogonalLoop=1;jettySize=auto;html=1;exitX=0.5;exitY=1;exitDx=0;exitDy=0;entryX=0.5;entryY=0;entryDx=0;entryDy=0;" edge="1" parent="1" source="OK_GVBnBG3V8d3GRJhXl-2" target="OK_GVBnBG3V8d3GRJhXl-4">
          <mxGeometry relative="1" as="geometry" />
        </mxCell>
        <mxCell id="OK_GVBnBG3V8d3GRJhXl-2" value="" style="ellipse;whiteSpace=wrap;html=1;aspect=fixed;" vertex="1" parent="1">
          <mxGeometry x="209.38" y="20" width="30" height="30" as="geometry" />
        </mxCell>
        <mxCell id="OK_GVBnBG3V8d3GRJhXl-3" style="edgeStyle=orthogonalEdgeStyle;rounded=0;orthogonalLoop=1;jettySize=auto;html=1;exitX=0.5;exitY=1;exitDx=0;exitDy=0;entryX=0.5;entryY=0;entryDx=0;entryDy=0;" edge="1" parent="1" source="OK_GVBnBG3V8d3GRJhXl-4" target="OK_GVBnBG3V8d3GRJhXl-7">
          <mxGeometry relative="1" as="geometry" />
        </mxCell>
        <mxCell id="OK_GVBnBG3V8d3GRJhXl-4" value="Получить EFI_FILE_INFO из дескриптора каталога" style="rounded=0;whiteSpace=wrap;html=1;" vertex="1" parent="1">
          <mxGeometry x="134.38" y="80" width="180" height="50" as="geometry" />
        </mxCell>
        <mxCell id="OK_GVBnBG3V8d3GRJhXl-5" value="Нет" style="edgeStyle=orthogonalEdgeStyle;rounded=0;orthogonalLoop=1;jettySize=auto;html=1;exitX=0.5;exitY=1;exitDx=0;exitDy=0;entryX=0.5;entryY=0;entryDx=0;entryDy=0;" edge="1" parent="1" source="OK_GVBnBG3V8d3GRJhXl-7" target="OK_GVBnBG3V8d3GRJhXl-13">
          <mxGeometry relative="1" as="geometry" />
        </mxCell>
        <mxCell id="OK_GVBnBG3V8d3GRJhXl-6" value="Да" style="edgeStyle=orthogonalEdgeStyle;rounded=0;orthogonalLoop=1;jettySize=auto;html=1;exitX=1;exitY=0.5;exitDx=0;exitDy=0;entryX=0;entryY=0.5;entryDx=0;entryDy=0;" edge="1" parent="1" source="OK_GVBnBG3V8d3GRJhXl-7" target="OK_GVBnBG3V8d3GRJhXl-10">
          <mxGeometry relative="1" as="geometry" />
        </mxCell>
        <mxCell id="OK_GVBnBG3V8d3GRJhXl-7" value="Есть ли еще элементы в каталоге?" style="rhombus;whiteSpace=wrap;html=1;spacingLeft=23;spacingRight=20;" vertex="1" parent="1">
          <mxGeometry x="133.76" y="163.75" width="181.25" height="90" as="geometry" />
        </mxCell>
        <mxCell id="OK_GVBnBG3V8d3GRJhXl-9" value="Да" style="edgeStyle=orthogonalEdgeStyle;rounded=0;orthogonalLoop=1;jettySize=auto;html=1;exitX=0.5;exitY=1;exitDx=0;exitDy=0;entryX=0.5;entryY=0;entryDx=0;entryDy=0;" edge="1" parent="1" source="OK_GVBnBG3V8d3GRJhXl-10" target="OK_GVBnBG3V8d3GRJhXl-12">
          <mxGeometry relative="1" as="geometry" />
        </mxCell>
        <mxCell id="OK_GVBnBG3V8d3GRJhXl-18" value="Нет" style="edgeStyle=orthogonalEdgeStyle;rounded=0;orthogonalLoop=1;jettySize=auto;html=1;exitX=1;exitY=0.5;exitDx=0;exitDy=0;entryX=0.5;entryY=0;entryDx=0;entryDy=0;" edge="1" parent="1" source="OK_GVBnBG3V8d3GRJhXl-10" target="OK_GVBnBG3V8d3GRJhXl-15">
          <mxGeometry x="-0.5612" y="-1" relative="1" as="geometry">
            <mxPoint x="1" as="offset" />
          </mxGeometry>
        </mxCell>
        <mxCell id="OK_GVBnBG3V8d3GRJhXl-10" value="Это каталог?" style="rhombus;whiteSpace=wrap;html=1;spacingLeft=23;spacingRight=20;" vertex="1" parent="1">
          <mxGeometry x="386.25" y="163.75" width="181.25" height="90" as="geometry" />
        </mxCell>
        <mxCell id="OK_GVBnBG3V8d3GRJhXl-11" style="edgeStyle=orthogonalEdgeStyle;rounded=0;orthogonalLoop=1;jettySize=auto;html=1;exitX=0;exitY=0.5;exitDx=0;exitDy=0;entryX=0;entryY=0.5;entryDx=0;entryDy=0;" edge="1" parent="1" source="OK_GVBnBG3V8d3GRJhXl-12" target="OK_GVBnBG3V8d3GRJhXl-4">
          <mxGeometry relative="1" as="geometry" />
        </mxCell>
        <mxCell id="OK_GVBnBG3V8d3GRJhXl-12" value="Удалить EFI_FILE_INFO" style="rounded=0;whiteSpace=wrap;html=1;" vertex="1" parent="1">
          <mxGeometry x="392.5" y="370" width="168.75" height="29.37" as="geometry" />
        </mxCell>
        <mxCell id="OK_GVBnBG3V8d3GRJhXl-13" value="" style="ellipse;whiteSpace=wrap;html=1;aspect=fixed;" vertex="1" parent="1">
          <mxGeometry x="209.38" y="340" width="30" height="30" as="geometry" />
        </mxCell>
        <mxCell id="OK_GVBnBG3V8d3GRJhXl-19" style="edgeStyle=orthogonalEdgeStyle;rounded=0;orthogonalLoop=1;jettySize=auto;html=1;exitX=0.5;exitY=1;exitDx=0;exitDy=0;entryX=1;entryY=0.5;entryDx=0;entryDy=0;" edge="1" parent="1" source="OK_GVBnBG3V8d3GRJhXl-15" target="OK_GVBnBG3V8d3GRJhXl-12">
          <mxGeometry relative="1" as="geometry" />
        </mxCell>
        <mxCell id="OK_GVBnBG3V8d3GRJhXl-15" value="Открываем файл на чтение и&amp;nbsp; запись асинхронно" style="rounded=0;whiteSpace=wrap;html=1;spacingLeft=2;spacingRight=2;" vertex="1" parent="1">
          <mxGeometry x="620" y="270" width="160" height="50" as="geometry" />
        </mxCell>
      </root>
    </mxGraphModel>
  </diagram>
</mxfile>
